<svg xmlns="http://www.w3.org/2000/svg" version="1.1" xmlns:xlink="http://www.w3.org/1999/xlink" xmlns:svgjs="http://svgjs.dev/svgjs" width="2000" height="1751" viewBox="0 0 2000 1751"><g transform="matrix(1,0,0,1,-2.080745341614829,-2.4774787234039195)"><svg viewBox="0 0 161 141" data-background-color="#ffffff" preserveAspectRatio="xMidYMid meet" height="1751" width="2000" xmlns="http://www.w3.org/2000/svg" xmlns:xlink="http://www.w3.org/1999/xlink"><g id="tight-bounds" transform="matrix(1,0,0,1,0.16749999999998977,0.19949999999997203)"><svg viewBox="0 0 160.6647261913044 140.60052000000002" height="140.60052000000002" width="160.6647261913044"><g><svg viewBox="0 0 160.6647261913044 140.60052000000002" height="140.60052000000002" width="160.6647261913044"><g><svg viewBox="0 0 160.6647261913044 140.60052000000002" height="140.60052000000002" width="160.6647261913044"><g><path d="M0 140.601v-140.601h160.665v140.601z" fill="#000000" stroke="transparent" stroke-width="0" rx="0%" data-fill-palette-color="tertiary"></path><path d="M3.283 137.317v-134.034h154.098v134.034z" fill="#ffffff" stroke="transparent" stroke-width="0" rx="0%" data-fill-palette-color="quaternary"></path><path d="M9.85 130.751v-120.901h140.965v120.901z" fill="#000000" stroke="transparent" stroke-width="0" data-fill-palette-color="tertiary"></path></g><g transform="matrix(1,0,0,1,19.699740000000006,19.69974)"><svg viewBox="0 0 121.26524619130439 101.20104000000002" height="101.20104000000002" width="121.26524619130439"><g><svg viewBox="0 0 121.26524619130439 101.20104000000002" height="101.20104000000002" width="121.26524619130439"><g transform="matrix(1,0,0,1,0,0)"><svg width="121.26524619130439" viewBox="5 -28.75 34.45 28.75" height="101.20104000000002" data-palette-color="#ffffff"><path d="M5-28.75L5-28.75 10.7-28.75 21-19.05 21-11.5 11.3-20.65 11.3 0 5 0 5-28.75ZM39.45-28.75L39.45-28.75 33.8-28.75 23.45-19.05 23.45-11.5 33.15-20.65 33.15 0 39.45 0 39.45-28.75Z" opacity="1" transform="matrix(1,0,0,1,0,0)" fill="#ffffff" class="undefined-text-0" data-fill-palette-color="quaternary" id="text-0"></path></svg></g></svg></g></svg></g></svg></g><g></g></svg></g><defs></defs></svg><rect width="160.6647261913044" height="140.60052000000002" fill="none" stroke="none" visibility="hidden"></rect></g></svg></g></svg>