<svg xmlns="http://www.w3.org/2000/svg" version="1.1" xmlns:xlink="http://www.w3.org/1999/xlink" xmlns:svgjs="http://svgjs.dev/svgjs" width="2000" height="1247" viewBox="0 0 2000 1247"><g transform="matrix(1,0,0,1,-1.2121212121212466,0.504858299595071)"><svg viewBox="0 0 396 247" data-background-color="#ffffff" preserveAspectRatio="xMidYMid meet" height="1247" width="2000" xmlns="http://www.w3.org/2000/svg" xmlns:xlink="http://www.w3.org/1999/xlink"><g id="tight-bounds" transform="matrix(1,0,0,1,0.2400000000000091,-0.09999999999999432)"><svg viewBox="0 0 395.52 247.2" height="247.2" width="395.52"><g><svg></svg></g><g><svg viewBox="0 0 395.52 247.2" height="247.2" width="395.52"><g transform="matrix(1,0,0,1,114.61087847411443,47.215199999999996)"><svg viewBox="0 0 166.29824305177112 152.7696" height="152.7696" width="166.29824305177112"><g><svg viewBox="0 0 166.29824305177112 152.7696" height="152.7696" width="166.29824305177112"><g><svg viewBox="0 0 166.29824305177112 152.7696" height="152.7696" width="166.29824305177112"><g><svg viewBox="0 0 166.29824305177112 152.7696" height="152.7696" width="166.29824305177112"><g><svg viewBox="0 0 166.29824305177112 152.7696" height="152.7696" width="166.29824305177112"><g><svg viewBox="0 0 166.29824305177112 152.7696" height="152.7696" width="166.29824305177112"><g transform="matrix(1,0,0,1,0,0)"><svg width="166.29824305177112" viewBox="3.8499999046325684 -36.25 39.95000076293945 36.70000076293945" height="152.7696" data-palette-color="#6b7280"><path d="M43.8-0.4L43.8-0.4Q42.65 0.4 41.43 0.4 40.2 0.4 39.55-0.38 38.9-1.15 38.7-3L38.7-3 36.8-30.15 25.45-1.8Q24.95-0.45 23.58-0.48 22.2-0.5 21.75-1.8L21.75-1.8 10.7-30.2 8.85-3.15Q8.55 0.45 6.2 0.45L6.2 0.45Q5 0.45 3.85-0.6L3.85-0.6Q4.55-1.2 4.75-3.25L4.75-3.25 6.95-32.55Q6.95-32.75 6.95-32.95L6.95-32.95Q6.95-34.4 6.25-35.25L6.25-35.25Q7.8-36.25 9.4-36.25L9.4-36.25Q12.6-36.25 14.05-32.15L14.05-32.15 23.8-7.35 33.95-32.1Q35.4-36.25 38.85-36.25L38.85-36.25Q40.2-36.25 41.65-35.4L41.65-35.4Q40.9-34.65 40.9-33.1L40.9-33.1Q40.9-32.9 40.9-32.7L40.9-32.7 43.05-3.3Q43.15-1.1 43.8-0.4Z" opacity="1" transform="matrix(1,0,0,1,0,0)" fill="#6b7280" class="undefined-text-0" data-fill-palette-color="primary" id="text-0"></path></svg></g></svg></g></svg></g></svg></g></svg></g></svg></g></svg></g><g><path d="M0 123.6c0-68.262 55.338-123.6 123.6-123.6 30.402 0 58.24 10.976 79.768 29.183l-11.147 0c-19.26-14.022-42.974-22.294-68.621-22.295-64.458 0-116.712 52.254-116.712 116.712 0 64.458 52.254 116.712 116.712 116.712 25.647 0 49.361-8.272 68.621-22.295l11.147 0c-21.528 18.206-49.366 29.183-79.768 29.183-68.262 0-123.6-55.338-123.6-123.6z" fill="#6b7280" stroke="transparent" data-fill-palette-color="tertiary"></path></g></svg></g><defs></defs></svg><rect width="395.52" height="247.2" fill="none" stroke="none" visibility="hidden"></rect></g></svg></g></svg>